HIERARCHY
ROOT Reference
{
  OFFSET 0 0 0
  CHANNELS 6 Xposition Yposition Zposition Zrotation Xrotation Yrotation
  JOINT Hips
  {
    OFFSET 0 58 0
    CHANNELS 6 Xposition Yposition Zposition Zrotation Xrotation Yrotation
    JOINT Spine
    {
      OFFSET 11.3111 0 0
      CHANNELS 6 Xposition Yposition Zposition Zrotation Xrotation Yrotation
      JOINT Spine1
      {
        OFFSET 10.55 0 0
        CHANNELS 6 Xposition Yposition Zposition Zrotation Xrotation Yrotation
        JOINT Neck
        {
          OFFSET 10.1817 0 0
          CHANNELS 6 Xposition Yposition Zposition Zrotation Xrotation Yrotation
          JOINT Head
          {
            OFFSET 12.9514 0 0
            CHANNELS 6 Xposition Yposition Zposition Zrotation Xrotation Yrotation
            JOINT Jaw_base
            {
              OFFSET 5.70576 3.47903 0.0292262
              CHANNELS 6 Xposition Yposition Zposition Zrotation Xrotation Yrotation
              End Site
              {
                OFFSET 0 0 0
              }
            }
            JOINT HeadLeftEar1
            {
              OFFSET -2.11314 6.73884 -15.0569
              CHANNELS 6 Xposition Yposition Zposition Zrotation Xrotation Yrotation
              JOINT HeadLeftEar2
              {
                OFFSET 5.13504 0 0
                CHANNELS 6 Xposition Yposition Zposition Zrotation Xrotation Yrotation
                End Site
                {
                  OFFSET 5.9703 0 0
                }
              }
            }
            JOINT eyes1
            {
              OFFSET -0.154522 0.138767 -0.0514053
              CHANNELS 6 Xposition Yposition Zposition Zrotation Xrotation Yrotation
              End Site
              {
                OFFSET 0 0 0
              }
            }
            JOINT eyes2
            {
              OFFSET -0.18225 0.220525 -0.0510746
              CHANNELS 6 Xposition Yposition Zposition Zrotation Xrotation Yrotation
              End Site
              {
                OFFSET 0 0 0
              }
            }
            JOINT HeadRightEar1
            {
              OFFSET -1.94212 6.76567 15.068
              CHANNELS 6 Xposition Yposition Zposition Zrotation Xrotation Yrotation
              JOINT HeadRightEar2
              {
                OFFSET -5.13488 8.09665e-005 1.94826e-005
                CHANNELS 6 Xposition Yposition Zposition Zrotation Xrotation Yrotation
                End Site
                {
                  OFFSET -5.97029 -8.0371e-005 2.77829e-005
                }
              }
            }
          }
        }
        JOINT LeftShoulder
        {
          OFFSET 7.42521 -0.544158 3.11384
          CHANNELS 6 Xposition Yposition Zposition Zrotation Xrotation Yrotation
          JOINT LeftShoulderExtraBone
          {
            OFFSET 5.66673 -0.464865 0
            CHANNELS 6 Xposition Yposition Zposition Zrotation Xrotation Yrotation
            JOINT LeftArm
            {
              OFFSET 2.9513 0.895333 -0.202952
              CHANNELS 6 Xposition Yposition Zposition Zrotation Xrotation Yrotation
              JOINT LeftArmRoll
              {
                OFFSET 11.3212 -0.793655 -0.0734593
                CHANNELS 6 Xposition Yposition Zposition Zrotation Xrotation Yrotation
                JOINT LeftForeArm
                {
                  OFFSET 4.78244 0 0
                  CHANNELS 6 Xposition Yposition Zposition Zrotation Xrotation Yrotation
                  JOINT LeftForeArmRoll
                  {
                    OFFSET 10.7784 0 0
                    CHANNELS 6 Xposition Yposition Zposition Zrotation Xrotation Yrotation
                    JOINT LeftHand
                    {
                      OFFSET 5.01758 0 0
                      CHANNELS 6 Xposition Yposition Zposition Zrotation Xrotation Yrotation
                      JOINT LeftFingerBase
                      {
                        OFFSET 9.86364 0 0
                        CHANNELS 6 Xposition Yposition Zposition Zrotation Xrotation Yrotation
                        JOINT LeftHandMiddle1
                        {
                          OFFSET 5.05695 0 0
                          CHANNELS 6 Xposition Yposition Zposition Zrotation Xrotation Yrotation
                          JOINT LeftHandMiddle2
                          {
                            OFFSET 7.68706 0 0
                            CHANNELS 6 Xposition Yposition Zposition Zrotation Xrotation Yrotation
                            JOINT LeftHandMiddle3
                            {
                              OFFSET 4.75812 0 0
                              CHANNELS 6 Xposition Yposition Zposition Zrotation Xrotation Yrotation
                              End Site
                              {
                                OFFSET 1.89689 -0.618728 0
                              }
                            }
                          }
                        }
                        JOINT LeftHandRing1
                        {
                          OFFSET 4.12803 -0.410474 -3.11496
                          CHANNELS 6 Xposition Yposition Zposition Zrotation Xrotation Yrotation
                          JOINT LeftHandRing2
                          {
                            OFFSET 5.67866 0 0
                            CHANNELS 6 Xposition Yposition Zposition Zrotation Xrotation Yrotation
                            JOINT LeftHandRing3
                            {
                              OFFSET 4.21645 0 0
                              CHANNELS 6 Xposition Yposition Zposition Zrotation Xrotation Yrotation
                              End Site
                              {
                                OFFSET 2.13875 -0.928043 0
                              }
                            }
                          }
                        }
                        JOINT LeftHandIndex1
                        {
                          OFFSET 5.96704 0.241579 2.9239
                          CHANNELS 6 Xposition Yposition Zposition Zrotation Xrotation Yrotation
                          JOINT LeftHandIndex2
                          {
                            OFFSET 4.60022 -0.470944 -1.47229e-005
                            CHANNELS 6 Xposition Yposition Zposition Zrotation Xrotation Yrotation
                            JOINT LeftHandIndex3
                            {
                              OFFSET 3.83176 -0.269256 0
                              CHANNELS 6 Xposition Yposition Zposition Zrotation Xrotation Yrotation
                              End Site
                              {
                                OFFSET 1.89689 -0.618728 0
                              }
                            }
                          }
                        }
                      }
                      JOINT LeftInHandPinky
                      {
                        OFFSET 8.32265 -1.23233 -3.52398
                        CHANNELS 6 Xposition Yposition Zposition Zrotation Xrotation Yrotation
                        JOINT LeftHandPinky1
                        {
                          OFFSET 3.51424 -0.455122 0.492395
                          CHANNELS 6 Xposition Yposition Zposition Zrotation Xrotation Yrotation
                          JOINT LeftHandPinky2
                          {
                            OFFSET 5.09865 -0.0665936 -0.00913845
                            CHANNELS 6 Xposition Yposition Zposition Zrotation Xrotation Yrotation
                            JOINT LeftHandPinky3
                            {
                              OFFSET 3.51777 -0.231842 -0.0107383
                              CHANNELS 6 Xposition Yposition Zposition Zrotation Xrotation Yrotation
                              End Site
                              {
                                OFFSET 2.13875 -0.928041 0
                              }
                            }
                          }
                        }
                      }
                      JOINT LeftInHandThumb
                      {
                        OFFSET 4.62681 -2.35282 3.50026
                        CHANNELS 6 Xposition Yposition Zposition Zrotation Xrotation Yrotation
                        JOINT LeftHandThumb1
                        {
                          OFFSET 6.07109 0 0
                          CHANNELS 6 Xposition Yposition Zposition Zrotation Xrotation Yrotation
                          JOINT LeftHandThumb2
                          {
                            OFFSET 4.21902 0 0
                            CHANNELS 6 Xposition Yposition Zposition Zrotation Xrotation Yrotation
                            End Site
                            {
                              OFFSET 2.94933 0 0
                            }
                          }
                        }
                      }
                    }
                  }
                }
              }
            }
          }
        }
        JOINT RightShoulder
        {
          OFFSET 7.42519 -0.544155 -3.11384
          CHANNELS 6 Xposition Yposition Zposition Zrotation Xrotation Yrotation
          JOINT RightShoulderExtraBone
          {
            OFFSET -5.66673 0.464872 0
            CHANNELS 6 Xposition Yposition Zposition Zrotation Xrotation Yrotation
            JOINT RightArm
            {
              OFFSET -2.95132 -0.89534 0.20295
              CHANNELS 6 Xposition Yposition Zposition Zrotation Xrotation Yrotation
              JOINT RightArmRoll
              {
                OFFSET -11.3212 0.793637 0.0734607
                CHANNELS 6 Xposition Yposition Zposition Zrotation Xrotation Yrotation
                JOINT RightForeArm
                {
                  OFFSET -4.78247 -5.76423e-005 0
                  CHANNELS 6 Xposition Yposition Zposition Zrotation Xrotation Yrotation
                  JOINT RightForeArmRoll
                  {
                    OFFSET -10.7783 8.92888e-005 0
                    CHANNELS 6 Xposition Yposition Zposition Zrotation Xrotation Yrotation
                    JOINT RightHand
                    {
                      OFFSET -5.01761 -6.61117e-005 0
                      CHANNELS 6 Xposition Yposition Zposition Zrotation Xrotation Yrotation
                      JOINT RightFingerBase
                      {
                        OFFSET -9.8636 0 -1.77876e-005
                        CHANNELS 6 Xposition Yposition Zposition Zrotation Xrotation Yrotation
                        JOINT RightHandMiddle1
                        {
                          OFFSET -5.05696 -2.43274e-005 0
                          CHANNELS 6 Xposition Yposition Zposition Zrotation Xrotation Yrotation
                          JOINT RightHandMiddle2
                          {
                            OFFSET -7.68714 2.4216e-005 0
                            CHANNELS 6 Xposition Yposition Zposition Zrotation Xrotation Yrotation
                            JOINT RightHandMiddle3
                            {
                              OFFSET -4.75811 4.95114e-005 0
                              CHANNELS 6 Xposition Yposition Zposition Zrotation Xrotation Yrotation
                              End Site
                              {
                                OFFSET -1.8969 0.618705 0
                              }
                            }
                          }
                        }
                        JOINT RightHandRing1
                        {
                          OFFSET -4.12806 0.410541 3.11497
                          CHANNELS 6 Xposition Yposition Zposition Zrotation Xrotation Yrotation
                          JOINT RightHandRing2
                          {
                            OFFSET -5.67871 -4.42573e-005 0
                            CHANNELS 6 Xposition Yposition Zposition Zrotation Xrotation Yrotation
                            JOINT RightHandRing3
                            {
                              OFFSET -4.21645 -1.08747e-005 0
                              CHANNELS 6 Xposition Yposition Zposition Zrotation Xrotation Yrotation
                              End Site
                              {
                                OFFSET -2.13872 0.928071 0
                              }
                            }
                          }
                        }
                        JOINT RightHandIndex1
                        {
                          OFFSET -5.96705 -0.241605 -2.9239
                          CHANNELS 6 Xposition Yposition Zposition Zrotation Xrotation Yrotation
                          JOINT RightHandIndex2
                          {
                            OFFSET -4.60024 0.470946 1.41902e-005
                            CHANNELS 6 Xposition Yposition Zposition Zrotation Xrotation Yrotation
                            JOINT RightHandIndex3
                            {
                              OFFSET -3.83177 0.269328 0
                              CHANNELS 6 Xposition Yposition Zposition Zrotation Xrotation Yrotation
                              End Site
                              {
                                OFFSET -1.89696 0.618747 0
                              }
                            }
                          }
                        }
                      }
                      JOINT RightInHandPinky
                      {
                        OFFSET -8.32261 1.2324 3.52398
                        CHANNELS 6 Xposition Yposition Zposition Zrotation Xrotation Yrotation
                        JOINT RightHandPinky1
                        {
                          OFFSET -3.51426 0.45508 -0.492399
                          CHANNELS 6 Xposition Yposition Zposition Zrotation Xrotation Yrotation
                          JOINT RightHandPinky2
                          {
                            OFFSET -5.09865 0.0666294 0.00913634
                            CHANNELS 6 Xposition Yposition Zposition Zrotation Xrotation Yrotation
                            JOINT RightHandPinky3
                            {
                              OFFSET -3.51777 0.23182 0.0107362
                              CHANNELS 6 Xposition Yposition Zposition Zrotation Xrotation Yrotation
                              End Site
                              {
                                OFFSET -2.13877 0.928066 0
                              }
                            }
                          }
                        }
                      }
                      JOINT RightInHandThumb
                      {
                        OFFSET -4.62679 2.3528 -3.50027
                        CHANNELS 6 Xposition Yposition Zposition Zrotation Xrotation Yrotation
                        JOINT RightHandThumb1
                        {
                          OFFSET -6.07112 1.49241e-005 3.81821e-005
                          CHANNELS 6 Xposition Yposition Zposition Zrotation Xrotation Yrotation
                          JOINT RightHandThumb2
                          {
                            OFFSET -4.21903 1.12893e-005 0
                            CHANNELS 6 Xposition Yposition Zposition Zrotation Xrotation Yrotation
                            End Site
                            {
                              OFFSET -2.94933 4.02331e-005 0
                            }
                          }
                        }
                      }
                    }
                  }
                }
              }
            }
          }
        }
      }
    }
    JOINT Hips_LeftUpLeg
    {
      OFFSET -0.626915 3.33685 -6.93514
      CHANNELS 6 Xposition Yposition Zposition Zrotation Xrotation Yrotation
      JOINT Hips_LeftLeg
      {
        OFFSET -24.1812 -1.41538 -1.24711
        CHANNELS 6 Xposition Yposition Zposition Zrotation Xrotation Yrotation
        JOINT LeftFoot
        {
          OFFSET 26.4146 0 0
          CHANNELS 6 Xposition Yposition Zposition Zrotation Xrotation Yrotation
          JOINT LeftToeBase
          {
            OFFSET 11.4315 0 0
            CHANNELS 6 Xposition Yposition Zposition Zrotation Xrotation Yrotation
            End Site
            {
              OFFSET 10.9366 0 0
            }
          }
        }
      }
    }
    JOINT Hips_RightUpLeg
    {
      OFFSET -0.6269 3.33686 6.93514
      CHANNELS 6 Xposition Yposition Zposition Zrotation Xrotation Yrotation
      JOINT Hips_RightLeg
      {
        OFFSET 24.1812 1.41539 1.24711
        CHANNELS 6 Xposition Yposition Zposition Zrotation Xrotation Yrotation
        JOINT RightFoot
        {
          OFFSET -26.4147 0 0
          CHANNELS 6 Xposition Yposition Zposition Zrotation Xrotation Yrotation
          JOINT RightToeBase
          {
            OFFSET -11.4315 0 0
            CHANNELS 6 Xposition Yposition Zposition Zrotation Xrotation Yrotation
            End Site
            {
              OFFSET -10.9367 0 0
            }
          }
        }
      }
    }
  }
}
MOTION
Frames:	1
Frame Time:	0.00833333
0 0 0 0 0 -0 -6.9564e-007 58 0 -0.00014333 -88.0251 -90.0001 11.3111 -7.70217e-016 -4.15293e-015 -166.302 3.9942e-006 180 10.55 3.51792e-009 1.53848e-007 6.2345 -3.10028e-015 1.76658e-015 10.1817 1.54945e-009 5.31815e-008 1.60548 2.05956 0.139771 12.9514 1.96967e-009 -7.08343e-011 -77.2349 -0.369867 177.635 5.70576 3.47903 0.0292262 8.892 -4.0319e-017 90.3292 -2.11314 6.73884 -15.0569 -51.1824 15.8666 171.057 5.13504 2.93299e-012 8.54428e-013 -19.7388 -10.0112 -11.0843 -0.309043 0.277534 -0.102811 -0.857921 0.413537 0.147191 -0.3645 0.44105 -0.102149 -0.857921 0.413537 0.147191 -1.94212 6.76567 15.068 128.913 16.437 170.714 -5.13488 8.09665e-005 1.94826e-005 -19.7388 -10.0112 -11.0843 7.42522 -0.544157 3.11384 -84.5113 -1.35541 -90.001 5.66673 -0.464865 5.64826e-015 -1.4368e-016 -3.03321e-021 -1.94126e-019 2.9513 0.895335 -0.202952 -3.3054 -0.800009 0.000982661 11.3212 -0.793654 -0.0734593 1.98522e-015 0 -7.97803e-016 4.78244 6.71021e-008 3.87717e-008 8.07968 -0.16412 -0.112449 10.7784 -1.64313e-014 2.56739e-016 7.13413e-016 0 6.27861e-018 5.01758 7.81307e-009 1.11473e-008 -0.756384 1.98785e-016 -8.83915 9.86364 1.64313e-014 -2.05391e-015 -14.8267 1.0945 -4.12732 5.05695 8.21565e-014 6.16174e-015 6.60335 -2.64988 17.6594 7.68706 -6.57252e-014 6.16174e-015 -7.53278 -6.93278e-006 0.000105312 4.75812 1.64313e-014 -2.05391e-015 16.2073 -2.27367e-005 -0.000374853 4.12803 -0.410475 -3.11496 8.66157 -2.10079 19.3903 5.67866 1.64313e-014 2.05391e-015 -11.8082 0.0192287 -0.0579471 4.21645 3.28626e-014 -5.13478e-015 18.3575 -3.97569e-016 -0.835706 5.96704 0.241581 2.9239 11.6141 -1.63217 11.5751 4.60023 -0.470946 -1.48123e-005 -7.53278 -6.93278e-006 0.000105312 3.83176 -0.269258 -6.31141e-006 8.38418 2.84979e-005 -0.000374459 8.32265 -1.23233 -3.52398 3.49932 1.38664 30.5864 3.51424 -0.455126 0.492394 -10.2624 0.813977 -11.6974 5.09865 -0.066589 -0.00913837 -11.8082 0.0192287 -0.0579471 3.51777 -0.231841 -0.0107379 18.3575 -2.38542e-015 -0.835706 4.62682 -2.35282 3.50026 -4.59158 3.49842 -37.2282 6.07109 1.64313e-014 0 -5.86312 -3.60231 16.9715 4.21903 -3.28626e-014 0 0.795503 -3.02971 14.7194 7.4252 -0.544154 -3.11384 95.4887 -1.35542 -90.001 -5.66673 0.464872 7.41699e-006 -3.46529e-016 0 -1.94126e-019 -2.95132 -0.895339 0.20295 -3.305 -0.800009 0.000982776 -11.3212 0.793635 0.0734606 3.13905e-016 0 9.51634e-018 -4.78247 -5.29264e-005 -3.92189e-006 8.07968 -0.16412 -0.112449 -10.7783 8.47543e-005 -8.62317e-006 8.50034e-016 0 -1.59194e-015 -5.01761 -6.25146e-005 9.20178e-006 -0.756384 3.55642e-011 -8.83915 -9.8636 1.64313e-014 -1.80006e-005 -14.8267 1.0945 -4.12732 -5.05696 -2.11555e-005 7.7979e-006 6.60335 -2.64988 17.6594 -7.68714 2.21791e-005 -4.78988e-008 -7.53278 -6.93278e-006 0.000105312 -4.75811 5.21755e-005 -1.93157e-008 16.2073 -2.27805e-005 -0.000374853 -4.12806 0.410541 3.11497 8.66157 -2.10079 19.3903 -5.67871 -4.13889e-005 -3.90232e-006 -11.8082 0.0192287 -0.0579471 -4.21645 -1.42915e-005 -2.70673e-008 18.3575 -3.3694e-014 -0.835706 -5.96705 -0.241602 -2.9239 11.6141 -1.63217 11.5751 -4.60024 0.470942 1.39597e-005 -7.53278 -6.93278e-006 0.000105312 -3.83177 0.269329 8.97505e-006 8.38418 2.84781e-005 -0.000374461 -8.32261 1.2324 3.52398 3.49932 1.38664 30.5864 -3.51426 0.455081 -0.492399 -10.2624 0.813977 -11.6974 -5.09865 0.0666293 0.00913636 -11.8082 0.0192287 -0.0579471 -3.51777 0.23182 0.0107356 18.3575 -2.3059e-014 -0.835706 -4.62679 2.3528 -3.50027 -4.59158 3.49842 -37.2282 -6.07113 1.53417e-005 4.00135e-005 -5.86312 -3.60231 16.9715 -4.21903 5.40532e-006 3.59059e-006 0.795503 -3.02971 14.7194 -0.626915 3.33685 -6.93514 -2.04828 -9.24379e-009 1.76436e-007 -24.1812 -1.41538 -1.24711 3.53523 -3.60476 179.685 26.4146 2.05391e-015 7.18869e-015 112.468 4.45763 -169.789 11.4315 2.15661e-014 5.13478e-015 22.2104 -0.054286 -6.87765 -0.6269 3.33686 6.93514 177.952 -9.91071e-006 -1.76436e-007 24.1812 1.41539 1.24711 3.53523 -3.60476 179.685 -26.4147 -3.95953e-006 -2.78337e-008 112.468 4.45763 -169.789 -11.4315 4.09631e-006 -8.20065e-006 22.2104 -0.054286 -6.87765 
